<svg id="Группа_3_копия_2" data-name="Группа 3 копия 2" xmlns="http://www.w3.org/2000/svg" xmlns:xlink="http://www.w3.org/1999/xlink" width="512" height="512" viewBox="0 0 512 512">
  <defs>
    <style>
      .cls-1 {
        fill: #f7941d;
        filter: url(#filter);
      }

      .cls-1, .cls-2 {
        fill-rule: evenodd;
      }

      .cls-2 {
        fill: #fff;
        opacity: 0.2;
      }
    </style>
    <filter id="filter" x="-9" y="-9" width="531" height="531" filterUnits="userSpaceOnUse">
      <feOffset result="offset" in="SourceAlpha"/>
      <feGaussianBlur result="blur" stdDeviation="6.083"/>
      <feFlood result="flood" flood-opacity="0.24"/>
      <feComposite result="composite" operator="in" in2="blur"/>
      <feGaussianBlur result="blur-2" stdDeviation="24.333" in="SourceAlpha"/>
      <feComposite result="composite-2"/>
      <feComposite result="composite-3"/>
      <feComposite result="composite-4"/>
      <feFlood result="flood-2" flood-opacity="0.32"/>
      <feComposite result="composite-5" operator="in" in2="composite-4"/>
      <feBlend result="blend" in2="composite"/>
      <feBlend result="blend-2" in="SourceGraphic"/>
      <feGaussianBlur result="blur-3" stdDeviation="24.333" in="SourceAlpha"/>
      <feFlood result="flood-3" flood-color="#ff7d1e"/>
      <feComposite result="composite-7" operator="out" in2="blur-3"/>
      <feComposite result="composite-6" operator="in" in2="SourceAlpha"/>
      <feBlend result="blend-3" in2="blend-2"/>
    </filter>
  </defs>
  <path id="Многоугольник_3" data-name="Многоугольник 3" class="cls-1" d="M357.959,405.878Q283.028,378.85,220.117,427.71t-60.36-30.755q2.551-79.617-63.359-124.349T107,205.7Q183.5,183.52,205.68,107.012t66.909-10.6q44.734,65.91,124.349,63.359t30.755,60.36q-48.859,62.91-21.832,137.841T357.959,405.878Z"/>
  <path id="Фигура_1" data-name="Фигура 1" class="cls-2" d="M345.574,220.2a14.593,14.593,0,0,1-6.331-10.084c-1.252-9.368,7.431-19.051,19.33-20.931s23.063,4.667,24.314,14.036c1.22,9.126-6.339,17.876-17.157,20.845L342.418,301.53c-26.309,1.384-52.445,4.008-71.066,6.95-29.6,4.677-50.878,11.056-69.634,15.279l-42.042-67.387c-10.685,1.688-21.236-4.956-22.489-14.33-1.284-9.615,7.7-19.346,19.61-21.227s22.756,4.716,24.041,14.331c0.363,2.715-.223,5.328-3.776,11.429l35.294,23.882,6.274-53.369c-8.579,1.1-18.147-5.186-19.4-14.56-1.383-10.355,7.869-20.38,20.692-22.406,12.511-1.977,24.318,4.722,25.7,15.076a17.262,17.262,0,0,1-8.675,16.735L265.406,259.3l0.61-.1,13.966-54.073c-6.292-2.787-10.37-7.682-11.161-13.6-1.384-10.354,7.867-20.38,20.692-22.406,12.511-1.977,24.317,4.722,25.7,15.077,1.187,8.881-4.438,15.812-13.565,19.768l17.532,49.608ZM189.861,374.985c-1.483-11.1-4.754-33.245,13.092-37.318,18.754-4.224,40.027-10.609,69.633-15.286,18.927-2.99,44.766-5.561,71.067-6.944,19.8-1.117,22,17.672,23.846,31.483Z"/>
</svg>
